# xmcd CD database file generated by LOLA_Freedb v0.9beta0
# 
# Track frame offsets:
#      150
#      22958
#      40387
#      54516
#      72659
#      94259
#      119438
#      139071
#      155472
#      178799
# 
# Disc length: 2614 seconds
# 
# Revision: 1 
# Processed by: cddbd v1.5.2PL0 Copyright (c) Steve Scherf et al.
# Submitted via: LOLA_Freedb v0.9beta0
# 
DISCID=8d0a340a
DTITLE=Art Hodes - When Music Was Music
DYEAR=1900
DGENRE=
TTITLE0=Art Hodes - Cherry
TTITLE1=Art Hodes - Gee Baby, Ain't I Good To You?
TTITLE2=Art Hodes - I Know That You Know
TTITLE3=Art Hodes - I'm Comin' Virginia
TTITLE4=Art Hodes - Blue, Turning Groy Over You
TTITLE5=Art Hodes - Judy
TTITLE6=Art Hodes - Save It Pretty Mama
TTITLE7=Art Hodes - Truckin'
TTITLE8=Art Hodes - Georgia On My Mind
TTITLE9=Art Hodes - Mood Indigo
EXTD=
EXTT0=
EXTT1=
EXTT2=
EXTT3=
EXTT4=
EXTT5=
EXTT6=
EXTT7=
EXTT8=
EXTT9=
PLAYORDER=
